HIERARCHY
ROOT hip
{
  OFFSET 0 0 0
  CHANNELS 6 Xposition Yposition Zposition Zrotation Yrotation Xrotation
  JOINT abdomen
  {
    OFFSET 0 20.6881 -0.73152
    CHANNELS 3 Zrotation Xrotation Yrotation
    JOINT chest
    {
      OFFSET 0 11.7043 -0.48768
      CHANNELS 3 Zrotation Xrotation Yrotation
      JOINT neck
      {
        OFFSET 0 22.1894 -2.19456
        CHANNELS 3 Zrotation Xrotation Yrotation
        JOINT head
        {
          OFFSET -0.24384 7.07133 1.2192
          CHANNELS 3 Zrotation Xrotation Yrotation
          JOINT leftEye
          {
            OFFSET 4.14528 8.04674 8.04672
            CHANNELS 3 Zrotation Xrotation Yrotation
            End Site
            {
              OFFSET 1 0 0
            }
          }
          JOINT rightEye
          {
            OFFSET -3.6576 8.04674 8.04672
            CHANNELS 3 Zrotation Xrotation Yrotation
            End Site
            {
              OFFSET 1 0 0
            }
          }
        }
      }
      JOINT rCollar
      {
        OFFSET -2.68224 19.2634 -4.8768
        CHANNELS 3 Zrotation Xrotation Yrotation
        JOINT rShldr
        {
          OFFSET -8.77824 -1.95073 1.46304
          CHANNELS 3 Zrotation Xrotation Yrotation
          JOINT rForeArm
          {
            OFFSET -28.1742 -1.7115 0.48768
            CHANNELS 3 Zrotation Xrotation Yrotation
            JOINT rHand
            {
              OFFSET -22.5879 0.773209 7.07136
              CHANNELS 3 Zrotation Xrotation Yrotation
              JOINT rThumb1
              {
                OFFSET -1.2192 -0.487915 3.41376
                CHANNELS 3 Zrotation Xrotation Yrotation
                JOINT rThumb2
                {
                  OFFSET -3.37035 -0.52449 3.41376
                  CHANNELS 3 Zrotation Xrotation Yrotation
                  End Site
                  {
                    OFFSET -1.78271 -1.18214 1.43049
                  }
                }
              }
              JOINT rIndex1
              {
                OFFSET -7.75947 0.938293 5.60832
                CHANNELS 3 Zrotation Xrotation Yrotation
                JOINT rIndex2
                {
                  OFFSET -2.54057 -0.884171 1.56538
                  CHANNELS 3 Zrotation Xrotation Yrotation
                  End Site
                  {
                    OFFSET -1.62519 -0.234802 1.16502
                  }
                }
              }
              JOINT rMid1
              {
                OFFSET -8.24714 1.18213 3.41376
                CHANNELS 3 Zrotation Xrotation Yrotation
                JOINT rMid2
                {
                  OFFSET -3.10165 -0.590103 1.0647
                  CHANNELS 3 Zrotation Xrotation Yrotation
                  End Site
                  {
                    OFFSET -2.48547 -0.328903 0.83742
                  }
                }
              }
              JOINT rRing1
              {
                OFFSET -8.82822 0.546677 1.51678
                CHANNELS 3 Zrotation Xrotation Yrotation
                JOINT rRing2
                {
                  OFFSET -2.60934 -0.819778 -0.0198488
                  CHANNELS 3 Zrotation Xrotation Yrotation
                  End Site
                  {
                    OFFSET -2.33842 -0.294052 0.168128
                  }
                }
              }
              JOINT rPinky1
              {
                OFFSET -8.27202 -0.0477905 -0.4584
                CHANNELS 3 Zrotation Xrotation Yrotation
                JOINT rPinky2
                {
                  OFFSET -1.82734 -0.647385 -0.700984
                  CHANNELS 3 Zrotation Xrotation Yrotation
                  End Site
                  {
                    OFFSET -1.69225 -0.51767 -0.607171
                  }
                }
              }
            }
          }
        }
      }
      JOINT lCollar
      {
        OFFSET 2.68224 19.2634 -4.8768
        CHANNELS 3 Zrotation Xrotation Yrotation
        JOINT lShldr
        {
          OFFSET 8.77824 -1.95073 1.46304
          CHANNELS 3 Zrotation Xrotation Yrotation
          JOINT lForeArm
          {
            OFFSET 28.1742 -1.7115 0.48768
            CHANNELS 3 Zrotation Xrotation Yrotation
            JOINT lHand
            {
              OFFSET 22.5879 0.773209 7.07136
              CHANNELS 3 Zrotation Xrotation Yrotation
              JOINT lThumb1
              {
                OFFSET 1.2192 -0.487915 3.41376
                CHANNELS 3 Zrotation Xrotation Yrotation
                JOINT lThumb2
                {
                  OFFSET 3.37035 -0.52449 3.41376
                  CHANNELS 3 Zrotation Xrotation Yrotation
                  End Site
                  {
                    OFFSET 1.78271 -1.18214 1.43049
                  }
                }
              }
              JOINT lIndex1
              {
                OFFSET 7.75947 0.938293 5.60832
                CHANNELS 3 Zrotation Xrotation Yrotation
                JOINT lIndex2
                {
                  OFFSET 2.54057 -0.884171 1.56538
                  CHANNELS 3 Zrotation Xrotation Yrotation
                  End Site
                  {
                    OFFSET 1.62519 -0.234802 1.16502
                  }
                }
              }
              JOINT lMid1
              {
                OFFSET 8.24714 1.18213 3.41376
                CHANNELS 3 Zrotation Xrotation Yrotation
                JOINT lMid2
                {
                  OFFSET 3.10165 -0.590103 1.0647
                  CHANNELS 3 Zrotation Xrotation Yrotation
                  End Site
                  {
                    OFFSET 2.48547 -0.328903 0.83742
                  }
                }
              }
              JOINT lRing1
              {
                OFFSET 8.82822 0.546677 1.51678
                CHANNELS 3 Zrotation Xrotation Yrotation
                JOINT lRing2
                {
                  OFFSET 2.60934 -0.819778 -0.0198488
                  CHANNELS 3 Zrotation Xrotation Yrotation
                  End Site
                  {
                    OFFSET 2.33842 -0.294052 0.168128
                  }
                }
              }
              JOINT lPinky1
              {
                OFFSET 8.27202 -0.0477905 -0.4584
                CHANNELS 3 Zrotation Xrotation Yrotation
                JOINT lPinky2
                {
                  OFFSET 1.82734 -0.647385 -0.700984
                  CHANNELS 3 Zrotation Xrotation Yrotation
                  End Site
                  {
                    OFFSET 1.69225 -0.51767 -0.607171
                  }
                }
              }
            }
          }
        }
      }
    }
  }
  JOINT rButtock
  {
    OFFSET -8.77824 4.35084 1.2192
    CHANNELS 3 Zrotation Xrotation Yrotation
    JOINT rThigh
    {
      OFFSET 0 -1.70687 -2.19456
      CHANNELS 3 Zrotation Xrotation Yrotation
      JOINT rShin
      {
        OFFSET 0 -36.8199 0.73152
        CHANNELS 3 Zrotation Xrotation Yrotation
        JOINT rFoot
        {
          OFFSET 0.73152 -45.1104 -5.12064
          CHANNELS 3 Zrotation Xrotation Yrotation
          End Site
          {
            OFFSET -1.1221 -3.69964 12.103
          }
        }
      }
    }
  }
  JOINT lButtock
  {
    OFFSET 8.77824 4.35084 1.2192
    CHANNELS 3 Zrotation Xrotation Yrotation
    JOINT lThigh
    {
      OFFSET 0 -1.70687 -2.19456
      CHANNELS 3 Zrotation Xrotation Yrotation
      JOINT lShin
      {
        OFFSET 0 -36.8199 0.73152
        CHANNELS 3 Zrotation Xrotation Yrotation
        JOINT lFoot
        {
          OFFSET -0.73152 -45.1104 -5.12064
          CHANNELS 3 Zrotation Xrotation Yrotation
          End Site
          {
            OFFSET 1.1221 -3.69964 12.103
          }
        }
      }
    }
  }
}
MOTION
Frames:	4
Frame Time:	0.03333
19.71759097650647 54.38494682312012 12.696402100846171 -7.216267320395014 56.84431766932282 -4.155027333927252 -2.2886612811917537 12.595488669170692 -4.586253034723299 7.7845313753772585 -10.754780008608936 -0.8406624044486668 -9.099586969867541 20.517756785576783 -15.217646102862776 12.573166757189444 -29.01188419778948 -27.1592005080654 0.03324076978230667 0.1699047975854753 0.6719965391456083 0.0295678889169852 -0.03612188231243556 -0.12269162187586463 0.07686756256913174 -0.46983302491442724 -0.12623945158243668 58.09222055144083 -8.801082943702243 23.948927928342073 -27.576868283358973 -27.31333738706508 64.76336876662984 -0.45244256287478146 24.617297797120965 3.321836249296079 0.3872705520009594 0.1563796890075278 -0.10793734605157927 -0.1355298428749763 -0.48922990838361724 -0.5146936006613653 0.21497540164939116 -0.4710115527113718 -0.09026551223464066 7.66585171590641 5.235308836076685 0.436187726506356 0.41774867034655455 -0.47629577125143446 -0.15934137642552168 3.209422861501894 0.9154865398367747 0.3561475143873269 -0.17922784571998404 0.5219714873871312 0.4614345602779561 10.342726648813114 0.47003430205153107 0.14764390373950795 0.0008072963433837727 -0.22556262174973407 0.20386597890244643 2.140966124353044 -0.9878827030575017 0.1109659212986717 -0.0010299711824967666 -0.09783605655808578 0.8233789309190669 -85.5196033146249 78.12294557560797 10.087859847481381 27.24253052348685 -42.31783377649926 -87.67866026221178 30.624222068357277 -76.8512804653675 37.99653701317228 -0.007221164139143091 0.26815712215696164 0.1740902094428122 -0.4179878336892108 -0.11945096391895804 -0.30962944382789725 0.2605297752056143 -0.49624333872245674 0.08736350893060504 -7.7987057254523275 5.8511374746652525 -0.6684748829373792 0.3803313999693438 -1.044373383413679 0.3868239750231169 -3.571921918208804 1.169791771552686 -0.14274476379433118 -0.2914371816127154 -0.2294002275679292 -0.5763634853991162 -10.5825943547275 0.697532161853053 -0.1815033125698032 -0.4169623181379304 0.13464640059451746 -0.7643394694245642 -2.1965083689099414 -1.2190425581103554 0.18860185346900343 0.37573153436760465 0.09790910756569317 -0.30354606647451665 -57.2819825309589 -43.264702901138136 -63.14306348039522 -1.8457373873381782 64.55172852500782 2.400672755041966 -0.06609862208426949 5.255236339867021 8.91221268281929 0.23744768451408516 0.2844306348238988 -0.031928466327165075 37.18187644520276 -28.98280808249274 36.639733594927584 2.5933773644071785 82.06118483971314 -5.883787059558383 9.978152495258989 -25.99556166973784 22.609877879297535
20.186843816190958 54.27132844924927 12.71099029108882 -7.2575472761912785 57.22978622532166 -4.010624328268488 -2.3843219224991903 12.582569366355612 -4.6032593519829845 7.713911488227558 -10.748991423287348 -0.8368902190361157 -9.02601302590181 20.56935886475623 -15.287696522990428 12.58602714962293 -29.130401640267543 -27.23172687176718 0.025347845866122244 0.18434093600482618 0.6835860895066506 -0.008801552519207681 -0.04185241102607626 -0.09649539180963276 0.0574130493788198 -0.4834351332030961 -0.18455720754159227 58.13943081898396 -8.965528285706762 23.84911837400068 -27.550729149405335 -27.233270494519605 64.67802555295053 -0.44033989455234196 24.660116253027773 3.374513229496156 0.3435986426130152 0.15105214145491785 -0.1433237023677691 -0.19467309122835139 -0.4216293917338854 -0.5536314419025501 0.2561012513025073 -0.5273125885963753 -0.10007878652465649 7.656282620879222 5.241640848324111 0.4389969619676411 0.35530494652018235 -0.4809454225289207 -0.13764677463085712 3.226554256600755 0.8676039255472234 0.3692981898605402 -0.164262474361663 0.5356280237457486 0.4283000319537549 10.314883382661556 0.45448153442458894 0.11396594848946756 0.01640040477511132 -0.240123731286555 0.18027279796192988 2.1455530232675306 -1.0110952076734958 0.08850868619449288 -0.021981683183216662 -0.0940297201996846 0.8292802143619579 -85.96811451666296 78.106676065005 10.578499656320076 27.26187703431091 -42.35931351532875 -87.64405169368733 30.766870569172994 -76.82964242607689 38.13835906109843 0.015351970737514363 0.2177257800899378 0.17603147727097676 -0.40107553825231873 -0.1381972718697043 -0.2714762205676176 0.3031753419490583 -0.5278537743663931 0.03414139425739632 -7.7976607065093155 5.832964902604788 -0.668080866399634 0.3816982915769926 -1.0327977068743883 0.3979635866725846 -3.5760955906785044 1.203030887148553 -0.1616396283595252 -0.3194424513136486 -0.25455624116790926 -0.5648859928291444 -10.66644517207316 0.7261502275885834 -0.14389586411288988 -0.47702302631548216 0.15009650194049787 -0.7575596528996803 -2.209417639884677 -1.2332433751684582 0.17818496121108773 0.33994177000356096 0.17620868866342684 -0.2787406336780286 -57.74060241296857 -43.23666155950065 -63.634536572312655 -1.9333751176917886 65.0735549775968 2.5248174196224715 -0.09818236849334658 5.144456647944938 8.896269313749187 0.10584423991651416 0.21369955699698717 -0.004670355288407781 37.45845129526409 -28.94135566441993 36.888028046730476 2.5758557947519805 82.12616725947663 -5.851166076082402 9.902653291720961 -25.994407367768105 22.53270186431827
20.663989800959826 53.97610664367676 12.744847917929292 -7.232994453672376 57.13924523768397 -3.819700904172768 -2.332997533198187 12.56846844081412 -4.629148330258271 7.592696121027342 -10.713564939609785 -0.8035292272522463 -8.900669663121967 20.555454307153376 -15.19786587502642 12.560645312893518 -29.214576891598778 -27.04401449035501 0.044898195148225926 0.19347748795848183 0.6930074816930369 -0.04691827695611009 -0.04257171532304323 -0.0856658067154602 0.030338179508889253 -0.4822338736828201 -0.20847855772738677 58.024608508846875 -8.852029324721368 23.645554831072204 -27.530935261190635 -27.172548405250897 64.70195853580225 -0.4484123243776508 24.302248491464955 3.335782214920776 0.30698744127957167 0.15105182128980052 -0.22280832128649997 -0.21281482071584573 -0.36053228239106355 -0.5594680519917375 0.3028534692844215 -0.5764259175969982 -0.07718911506865125 7.634068284377402 5.278079907546128 0.4515831863389763 0.31698406346012004 -0.4758153101320064 -0.12615583512595693 3.268378493096505 0.8693618454848555 0.34977580166535127 -0.14417318046536298 0.5279734093985741 0.40060425519958787 10.24134273586803 0.46770734197867236 0.09232171933993184 0.02871374174476337 -0.24166009696298474 0.10097985122678248 2.1520344459030496 -1.0416067299130005 0.060730947170285716 -0.05197613875821031 -0.109544281455957 0.8096086292220865 -85.45303629097396 77.93030009006776 9.924531241406157 27.162094800726194 -42.234867468651125 -87.33248578450802 30.66196910880535 -76.45686436155593 38.05405403617296 0.024196532104151968 0.19923816555400578 0.15894586578389563 -0.35921715081071875 -0.17531508114049232 -0.24089042002088892 0.373021710175255 -0.5524183362729324 0.003659540652098785 -7.786744356668343 5.7891074041704895 -0.66522328600563 0.3755118477362535 -1.0169042835625917 0.4141259486829504 -3.5589419974648404 1.2473652181642827 -0.16989818083971686 -0.3448366677609329 -0.24157141122548034 -0.5365042089502142 -10.698516325320956 0.7355912565688335 -0.11365915026577234 -0.5513348441549862 0.15966431630721636 -0.72089903941646 -2.219221522664584 -1.2489536640331338 0.17646460731389077 0.3106607490317163 0.263529668994278 -0.24018005366678116 -57.69593980598586 -43.15493151589227 -63.61349958966902 -2.033086061177043 65.34887990304 2.656510937339722 -0.1989165596936334 5.019838138990763 8.484885312492027 -0.037642346454703865 0.16894132736589362 -0.00030501063512338193 37.52025426196895 -29.077102259079346 36.9671045618463 2.6488363660335668 82.27092628874588 -5.938174575258725 9.818512191335573 -25.920026607706667 22.368744880839408
21.19704270735383 53.72878909111023 12.772944755852222 -7.072868779431066 56.79087826925664 -3.5639585579668034 -2.3104907792225258 12.555707939897244 -4.633741632475105 7.469692098038228 -10.707952231659327 -0.7834211503357287 -8.794105051691428 20.524335965294796 -15.095409622381643 12.538991051903638 -29.312313483527078 -26.8243795123095 0.06309830140878271 0.19183290647238968 0.7107683214125973 -0.06159165772741311 -0.031975530599414694 -0.07340406969055348 0.0015365524394148607 -0.4558219590492039 -0.20775327701489604 57.736777507033366 -8.628245006755071 23.57190148615737 -27.502398730838323 -27.079201917411627 64.64499475812434 -0.43760952643162937 23.93219054978096 3.31168658818944 0.28564768915663047 0.14197535365649983 -0.29019923650607704 -0.22993533020071738 -0.3293129817988162 -0.5457218694002638 0.3554386688175265 -0.6049083400444804 -0.05353446242560459 7.618549240809487 5.302899961216308 0.47522759369826795 0.27008937200098765 -0.46984529791059215 -0.13943201532516922 3.2933876576293297 0.8899478221998623 0.332916333472821 -0.1311167402583547 0.5101928261634442 0.38805783802450916 10.158786239370086 0.4698562902462876 0.09427814165031737 0.044485502311969065 -0.23013500651223448 -0.012477915180180267 2.1464780870132443 -1.0818258719537976 0.030143652519676118 -0.07925324626059671 -0.1420030479391501 0.7897560440692097 -84.50109233578178 77.74321437851195 8.79601835843268 27.05771243473547 -42.04051443581841 -86.90143937617769 30.40520180733706 -76.05211418153014 37.85114277631022 0.033370329933125345 0.20619983586554128 0.14482573033536364 -0.31922639322029406 -0.21222670407571062 -0.21172060306646853 0.4188362712501733 -0.5649979438985091 -0.02854138618992633 -7.74823148125958 5.7334323978116 -0.6492747942936502 0.35709296197884477 -1.0057141925462894 0.4449318093870004 -3.5318816417468963 1.2775420611344568 -0.16491256963243067 -0.3705996077016921 -0.22426072366090616 -0.4840513443322782 -10.713910717936518 0.7285036546444759 -0.10941258687102269 -0.616341916632523 0.16142714544331432 -0.6636829716260864 -2.2219535983325893 -1.24431660591693 0.165988164344149 0.2880494077843891 0.3418928562286574 -0.2377410358028519 -57.53103854885424 -43.17869032892016 -63.40411331047311 -2.125113468732856 65.45707692968217 2.739644371379121 -0.3234778658135097 4.971641762886214 7.907510638930631 -0.15728271472099753 0.12724088804885014 -0.012046319261786865 37.25438573343162 -29.10284182696654 36.70675141106375 2.667107548950174 82.28507844070616 -5.962671902490622 9.775555424098071 -25.814949269967897 22.312204574890043
